<svg width="20" height="20" viewBox="0 0 20 20" fill="none" xmlns="http://www.w3.org/2000/svg">
<path fill-rule="evenodd" clip-rule="evenodd" d="M5.60063 0.181885H14.3991C17.3873 0.181885 19.8183 2.61288 19.8182 5.60081V14.3993C19.8182 17.3873 17.3873 19.8182 14.3991 19.8182H5.60063C2.6127 19.8182 0.181824 17.3874 0.181824 14.3993V5.60081C0.181824 2.61288 2.6127 0.181885 5.60063 0.181885ZM14.3993 18.076C16.4266 18.076 18.0761 16.4267 18.0761 14.3993H18.076V5.60081C18.076 3.57355 16.4265 1.92412 14.3991 1.92412H5.60063C3.57337 1.92412 1.92406 3.57355 1.92406 5.60081V14.3993C1.92406 16.4267 3.57337 18.0761 5.60063 18.076H14.3993ZM4.85715 10.0002C4.85715 7.16431 7.16419 4.85721 10 4.85721C12.8358 4.85721 15.1429 7.16431 15.1429 10.0002C15.1429 12.8359 12.8358 15.1429 10 15.1429C7.16419 15.1429 4.85715 12.8359 4.85715 10.0002ZM6.62799 10.0001C6.62799 11.8594 8.14075 13.3719 10 13.3719C11.8593 13.3719 13.372 11.8594 13.372 10.0001C13.372 8.14065 11.8594 6.62797 10 6.62797C8.14063 6.62797 6.62799 8.14065 6.62799 10.0001Z" fill="#0291F7"/>
</svg>
