<svg width="19" height="16" viewBox="0 0 19 16" fill="none" xmlns="http://www.w3.org/2000/svg">
<path fill-rule="evenodd" clip-rule="evenodd" d="M18.8182 2.14586C18.1356 2.44831 17.4032 2.65343 16.6337 2.74501C17.4194 2.2745 18.0209 1.52819 18.3059 0.641647C17.5689 1.07737 16.7553 1.39377 15.8885 1.56528C15.1943 0.824768 14.207 0.363525 13.1118 0.363525C11.0108 0.363525 9.30725 2.06707 9.30725 4.16695C9.30725 4.46477 9.34086 4.75565 9.40577 5.0338C6.24437 4.87501 3.44107 3.36037 1.56486 1.05883C1.23689 1.61974 1.05031 2.27331 1.05031 2.97098C1.05031 4.29095 1.72246 5.45562 2.74228 6.13701C2.1188 6.11616 1.5324 5.94465 1.01904 5.65956V5.70707C1.01904 7.54968 2.33089 9.08749 4.07034 9.4375C3.75164 9.52325 3.41558 9.57077 3.06792 9.57077C2.82225 9.57077 2.58468 9.54644 2.35174 9.50007C2.83613 11.0124 4.24071 12.1122 5.90486 12.1423C4.60343 13.1621 2.96246 13.7682 1.18013 13.7682C0.873039 13.7682 0.570554 13.7497 0.272736 13.7161C1.95658 14.7973 3.95564 15.4277 6.10419 15.4277C13.1026 15.4277 16.9281 9.63104 16.9281 4.60386L16.9153 4.11134C17.6628 3.57822 18.3094 2.9084 18.8182 2.14586Z" fill="#0291F7"/>
</svg>
